<?xml version="1.0" standalone="no"?>
<!DOCTYPE svg PUBLIC "-//W3C//DTD SVG 20010904//EN"
 "http://www.w3.org/TR/2001/REC-SVG-20010904/DTD/svg10.dtd">
<svg version="1.0" xmlns="http://www.w3.org/2000/svg"
 width="980.000000pt" height="980.000000pt" viewBox="0 0 980.000000 980.000000"
 preserveAspectRatio="xMidYMid meet">

<g transform="translate(0.000000,980.000000) scale(0.100000,-0.100000)"
fill="#000000" stroke="none">
<path d="M2199 7651 l-29 -29 0 -156 0 -156 -130 0 -130 0 0 -405 0 -405 2990
0 2990 0 0 405 0 405 -130 0 -130 0 0 154 c0 138 -2 156 -20 179 -42 53 -127
39 -149 -24 -6 -18 -11 -94 -11 -170 l0 -139 -205 0 -205 0 0 158 c0 145 -2
160 -20 180 -38 41 -92 40 -130 -1 -18 -19 -20 -36 -20 -179 l0 -158 -205 0
-205 0 0 145 c0 162 -9 194 -58 214 -37 16 -77 5 -102 -26 -18 -23 -20 -41
-20 -179 l0 -154 -205 0 -205 0 0 154 c0 138 -2 156 -20 179 -40 50 -128 39
-150 -19 -6 -14 -10 -90 -10 -170 l0 -144 -205 0 -205 0 0 154 c0 138 -2 156
-20 179 -45 56 -130 39 -149 -31 -6 -20 -11 -97 -11 -169 l0 -133 -199 0 -198
0 -7 48 c-3 27 -6 98 -5 158 l1 108 -32 29 c-39 35 -82 32 -117 -9 -22 -24
-23 -34 -23 -180 l0 -154 -205 0 -205 0 0 144 c0 80 -4 156 -10 170 -12 32
-64 60 -97 51 -14 -3 -36 -17 -49 -30 -23 -23 -24 -29 -24 -180 l0 -155 -205
0 -205 0 0 154 c0 138 -2 156 -20 179 -40 50 -128 39 -150 -19 -6 -14 -10 -90
-10 -170 l0 -144 -205 0 -205 0 0 154 c0 138 -2 156 -20 179 -42 53 -127 39
-149 -24 -6 -18 -11 -94 -11 -170 l0 -139 -200 0 -200 0 0 141 c0 155 -11 197
-56 218 -40 18 -63 13 -95 -18z m-29 -529 c0 -45 5 -63 20 -80 27 -29 64 -37
101 -22 38 16 53 43 53 102 1 27 6 48 11 49 22 2 49 -52 53 -108 3 -48 0 -64
-20 -92 -67 -97 -210 -93 -267 9 -18 33 -22 52 -18 86 4 41 42 114 60 114 4 0
7 -26 7 -58z m587 -4 c2 -29 11 -63 18 -75 30 -46 121 -37 144 13 6 14 11 47
11 74 0 28 3 50 8 50 4 0 20 -19 35 -42 33 -52 35 -99 5 -158 -54 -103 -199
-108 -265 -9 -21 33 -25 47 -21 92 4 50 42 127 56 113 3 -3 7 -29 9 -58z m617
-85 c38 -32 81 -30 117 6 25 26 29 37 29 87 l0 57 25 -23 c53 -50 57 -142 8
-200 -87 -104 -238 -70 -274 62 -12 46 -1 91 34 135 l22 28 6 -65 c5 -53 11
-68 33 -87z m589 1 c36 -30 78 -31 113 -1 23 20 28 34 32 86 4 54 6 60 20 49
8 -7 24 -32 34 -55 43 -98 -32 -213 -140 -213 -134 0 -209 151 -124 252 l27
32 5 -63 c4 -53 9 -67 33 -87z m557 81 c0 -47 3 -56 31 -79 39 -33 82 -34 114
-1 21 20 25 34 25 79 0 30 4 57 9 61 19 11 55 -58 59 -114 3 -46 0 -62 -20
-90 -66 -96 -209 -93 -265 5 -27 46 -29 103 -7 147 37 73 54 71 54 -8z m582
21 c-9 -103 93 -164 158 -94 15 17 20 35 20 80 0 32 3 58 8 58 15 0 54 -71 59
-109 8 -57 -27 -126 -78 -151 -74 -38 -159 -19 -203 46 -39 57 -33 147 11 197
21 22 28 14 25 -27z m621 -102 c39 -33 81 -31 118 5 25 26 29 37 29 88 l1 58
29 -32 c87 -96 12 -253 -120 -253 -74 0 -130 45 -151 122 -12 46 -1 90 34 135
l22 28 5 -64 c4 -53 9 -66 33 -87z m590 0 c36 -30 78 -31 113 -1 23 20 28 34
32 86 4 52 7 60 19 49 26 -21 43 -66 43 -115 0 -148 -176 -209 -273 -94 -48
57 -47 135 1 193 l27 32 5 -63 c4 -53 9 -67 33 -87z m557 86 c0 -46 4 -64 20
-80 27 -27 65 -35 101 -20 39 16 52 42 50 101 -1 60 11 68 40 28 47 -66 34
-169 -27 -216 -95 -72 -236 -18 -251 97 -6 46 0 74 27 118 29 47 40 40 40 -28z
m598 -67 c28 -51 89 -57 133 -14 25 26 29 37 29 85 0 31 3 56 8 56 4 0 18 -16
30 -34 91 -133 -44 -294 -192 -232 -89 37 -115 175 -48 250 16 17 17 16 22
-35 3 -30 11 -64 18 -76z"/>
<path d="M6528 5793 c6 -2 18 -2 25 0 6 3 1 5 -13 5 -14 0 -19 -2 -12 -5z"/>
<path d="M6418 5773 c6 -2 18 -2 25 0 6 3 1 5 -13 5 -14 0 -19 -2 -12 -5z"/>
<path d="M6868 5763 c7 -3 16 -2 19 1 4 3 -2 6 -13 5 -11 0 -14 -3 -6 -6z"/>
<path d="M6310 5750 c-9 -6 -10 -10 -3 -10 6 0 15 5 18 10 8 12 4 12 -15 0z"/>
<path d="M6698 5743 c12 -2 30 -2 40 0 9 3 -1 5 -23 4 -22 0 -30 -2 -17 -4z"/>
<path d="M6938 5743 c7 -3 16 -2 19 1 4 3 -2 6 -13 5 -11 0 -14 -3 -6 -6z"/>
<path d="M6980 5736 c0 -3 9 -10 20 -16 11 -6 20 -8 20 -6 0 3 -9 10 -20 16
-11 6 -20 8 -20 6z"/>
<path d="M6408 5723 c7 -3 16 -2 19 1 4 3 -2 6 -13 5 -11 0 -14 -3 -6 -6z"/>
<path d="M6177 5693 c-26 -14 -46 -28 -44 -30 3 -3 96 43 106 53 12 11 -19 -1
-62 -23z"/>
<path d="M6310 5700 c-18 -12 -2 -12 25 0 13 6 15 9 5 9 -8 0 -22 -4 -30 -9z"/>
<path d="M6260 5680 c-8 -5 -10 -10 -5 -10 6 0 17 5 25 10 8 5 11 10 5 10 -5
0 -17 -5 -25 -10z"/>
<path d="M7140 5651 c14 -11 30 -21 35 -21 11 0 -7 14 -40 31 -13 7 -12 3 5
-10z"/>
<path d="M7060 5646 c0 -2 8 -10 18 -17 15 -13 16 -12 3 4 -13 16 -21 21 -21
13z"/>
<path d="M6010 5579 l-55 -51 56 46 c31 25 60 42 64 38 5 -4 5 -1 1 6 -4 6 -8
12 -9 12 -1 0 -27 -23 -57 -51z"/>
<path d="M7210 5606 c0 -2 8 -10 18 -17 15 -13 16 -12 3 4 -13 16 -21 21 -21
13z"/>
<path d="M6090 5585 c-7 -8 -17 -12 -23 -8 -6 3 -7 1 -3 -5 5 -9 14 -7 32 4
25 17 30 24 15 24 -5 0 -14 -7 -21 -15z"/>
<path d="M7140 5596 c0 -2 8 -10 18 -17 15 -13 16 -12 3 4 -13 16 -21 21 -21
13z"/>
<path d="M7191 5576 c-8 -10 -8 -16 1 -23 27 -20 42 -24 18 -4 -22 18 -21 26
3 22 5 -1 6 3 2 9 -8 13 -10 13 -24 -4z"/>
<path d="M6024 5528 l-19 -23 23 19 c12 11 22 21 22 23 0 8 -8 2 -26 -19z"/>
<path d="M7280 5536 c0 -2 7 -7 16 -10 8 -3 12 -2 9 4 -6 10 -25 14 -25 6z"/>
<path d="M7264 5509 c-3 -6 3 -21 15 -32 l21 -21 21 21 c16 15 18 22 8 28 -7
5 -10 4 -6 -2 4 -6 0 -16 -8 -23 -12 -10 -18 -10 -30 0 -9 7 -14 19 -11 27 6
16 0 17 -10 2z"/>
<path d="M5911 5487 c-13 -21 -12 -21 5 -5 10 10 16 20 13 22 -3 3 -11 -5 -18
-17z"/>
<path d="M5871 5444 c-7 -8 -11 -17 -9 -20 3 -2 13 5 23 16 10 11 14 20 9 20
-5 -1 -15 -8 -23 -16z"/>
<path d="M5920 5429 c0 -5 5 -7 10 -4 6 3 10 8 10 11 0 2 -4 4 -10 4 -5 0 -10
-5 -10 -11z"/>
<path d="M7430 5372 c0 -6 5 -14 11 -17 6 -4 8 -13 5 -21 -3 -8 0 -13 7 -11 7
1 11 -7 9 -18 -2 -16 -1 -17 7 -6 7 11 3 24 -11 45 -29 42 -28 41 -28 28z"/>
<path d="M5856 5348 c3 -5 10 -6 15 -3 13 9 11 12 -6 12 -8 0 -12 -4 -9 -9z"/>
<path d="M6432 5178 c2 -155 6 -137 10 50 2 56 0 102 -4 102 -5 0 -7 -69 -6
-152z"/>
<path d="M6538 5323 c34 -2 90 -2 125 0 34 2 6 3 -63 3 -69 0 -97 -1 -62 -3z"/>
<path d="M5794 5305 c-4 -8 -10 -12 -15 -9 -5 3 -6 -2 -3 -11 7 -18 7 -18 23
13 6 12 9 22 6 22 -3 0 -8 -7 -11 -15z"/>
<path d="M7480 5291 c0 -6 4 -13 10 -16 6 -3 7 1 4 9 -7 18 -14 21 -14 7z"/>
<path d="M7451 5245 c0 -5 6 -21 14 -35 8 -14 14 -20 14 -15 0 6 -6 21 -14 35
-8 14 -14 21 -14 15z"/>
<path d="M5785 5219 c-4 -6 -5 -12 -2 -15 2 -3 7 2 10 11 7 17 1 20 -8 4z"/>
<path d="M7485 5179 c-4 -6 -5 -12 -2 -15 2 -3 7 2 10 11 7 17 1 20 -8 4z"/>
<path d="M5711 5124 c0 -11 3 -14 6 -6 3 7 2 16 -1 19 -3 4 -6 -2 -5 -13z"/>
<path d="M5681 5074 c0 -11 3 -14 6 -6 3 7 2 16 -1 19 -3 4 -6 -2 -5 -13z"/>
<path d="M5731 5064 c0 -11 3 -14 6 -6 3 7 2 16 -1 19 -3 4 -6 -2 -5 -13z"/>
<path d="M6193 5013 c43 -2 110 -2 150 0 40 1 5 3 -78 3 -82 0 -115 -2 -72 -3z"/>
<path d="M6840 5013 c0 -5 63 -7 140 -5 l140 3 3 -183 2 -183 3 188 2 187
-145 0 c-80 0 -145 -3 -145 -7z"/>
<path d="M7531 5004 c0 -11 3 -14 6 -6 3 7 2 16 -1 19 -3 4 -6 -2 -5 -13z"/>
<path d="M5662 4975 c0 -16 2 -22 5 -12 2 9 2 23 0 30 -3 6 -5 -1 -5 -18z"/>
<path d="M7542 4940 c0 -14 2 -19 5 -12 2 6 2 18 0 25 -3 6 -5 1 -5 -13z"/>
<path d="M7592 4940 c0 -14 2 -19 5 -12 2 6 2 18 0 25 -3 6 -5 1 -5 -13z"/>
<path d="M5652 4900 c0 -14 2 -19 5 -12 2 6 2 18 0 25 -3 6 -5 1 -5 -13z"/>
<path d="M5703 4875 c0 -22 2 -30 4 -17 2 12 2 30 0 40 -3 9 -5 -1 -4 -23z"/>
<path d="M7602 4840 c0 -19 2 -27 5 -17 2 9 2 25 0 35 -3 9 -5 1 -5 -18z"/>
<path d="M7553 4800 c0 -25 2 -35 4 -22 2 12 2 32 0 45 -2 12 -4 2 -4 -23z"/>
<path d="M2237 4813 c-5 -7 1064 -7 2563 0 311 1 -138 3 -997 5 -859 1 -1564
-1 -1566 -5z"/>
<path d="M5702 4785 c0 -16 2 -22 5 -12 2 9 2 23 0 30 -3 6 -5 -1 -5 -18z"/>
<path d="M2253 4743 c15 -2 37 -2 50 0 12 2 0 4 -28 4 -27 0 -38 -2 -22 -4z"/>
<path d="M4393 4743 c9 -2 23 -2 30 0 6 3 -1 5 -18 5 -16 0 -22 -2 -12 -5z"/>
<path d="M5702 4730 c0 -14 2 -19 5 -12 2 6 2 18 0 25 -3 6 -5 1 -5 -13z"/>
<path d="M7541 4694 c0 -11 3 -14 6 -6 3 7 2 16 -1 19 -3 4 -6 -2 -5 -13z"/>
<path d="M7586 4685 c-3 -9 -6 -22 -5 -28 0 -7 5 -1 10 12 5 13 8 26 5 28 -2
2 -6 -3 -10 -12z"/>
<path d="M5661 4664 c0 -11 3 -14 6 -6 3 7 2 16 -1 19 -3 4 -6 -2 -5 -13z"/>
<path d="M5712 4660 c0 -14 2 -19 5 -12 2 6 2 18 0 25 -3 6 -5 1 -5 -13z"/>
<path d="M6858 4633 c7 -3 16 -2 19 1 4 3 -2 6 -13 5 -11 0 -14 -3 -6 -6z"/>
<path d="M7531 4604 c0 -11 3 -14 6 -6 3 7 2 16 -1 19 -3 4 -6 -2 -5 -13z"/>
<path d="M6432 4468 l-2 -148 198 2 197 2 -190 6 -190 5 -5 140 -6 140 -2
-147z"/>
<path d="M5720 4580 c0 -5 5 -10 11 -10 5 0 7 5 4 10 -3 6 -8 10 -11 10 -2 0
-4 -4 -4 -10z"/>
<path d="M2703 4553 c214 -2 560 -2 770 0 210 1 36 2 -388 2 -423 0 -595 -1
-382 -2z"/>
<path d="M4018 4553 c12 -2 32 -2 45 0 12 2 2 4 -23 4 -25 0 -35 -2 -22 -4z"/>
<path d="M4173 4553 c9 -2 25 -2 35 0 9 3 1 5 -18 5 -19 0 -27 -2 -17 -5z"/>
<path d="M4518 4553 c155 -2 409 -2 565 0 155 1 28 2 -283 2 -311 0 -438 -1
-282 -2z"/>
<path d="M2230 4490 c0 -5 5 -10 11 -10 5 0 7 5 4 10 -3 6 -8 10 -11 10 -2 0
-4 -4 -4 -10z"/>
<path d="M5781 4434 c0 -11 3 -14 6 -6 3 7 2 16 -1 19 -3 4 -6 -2 -5 -13z"/>
<path d="M7456 4423 c-6 -14 -5 -15 5 -6 7 7 10 15 7 18 -3 3 -9 -2 -12 -12z"/>
<path d="M5740 4411 c0 -6 4 -13 10 -16 6 -3 7 1 4 9 -7 18 -14 21 -14 7z"/>
<path d="M5810 4383 c0 -6 8 -17 18 -24 16 -13 16 -13 2 6 -8 11 -16 22 -17
24 -2 2 -3 0 -3 -6z"/>
<path d="M5840 4331 c0 -6 4 -13 10 -16 6 -3 7 1 4 9 -7 18 -14 21 -14 7z"/>
<path d="M7405 4329 c-4 -6 -5 -12 -2 -15 2 -3 7 2 10 11 7 17 1 20 -8 4z"/>
<path d="M7455 4319 c-4 -6 -5 -12 -2 -15 2 -3 7 2 10 11 7 17 1 20 -8 4z"/>
<path d="M5338 4293 c7 -3 16 -2 19 1 4 3 -2 6 -13 5 -11 0 -14 -3 -6 -6z"/>
<path d="M5817 4294 c-4 -4 3 -21 15 -38 26 -37 98 -118 98 -109 0 3 -15 22
-32 43 -46 51 -73 92 -70 102 2 10 -2 10 -11 2z"/>
<path d="M5351 4264 c0 -11 3 -14 6 -6 3 7 2 16 -1 19 -3 4 -6 -2 -5 -13z"/>
<path d="M7330 4228 c-15 -21 -17 -28 -6 -19 16 13 41 51 33 51 -2 0 -14 -15
-27 -32z"/>
<path d="M5920 4222 c0 -11 27 -42 37 -42 3 0 -2 10 -13 23 -10 12 -20 24 -21
26 -2 2 -3 -1 -3 -7z"/>
<path d="M7359 4183 c-13 -16 -12 -17 4 -4 16 13 21 21 13 21 -2 0 -10 -8 -17
-17z"/>
<path d="M7299 4123 l-34 -38 38 34 c34 33 42 41 34 41 -2 0 -19 -17 -38 -37z"/>
<path d="M6020 4120 c0 -5 5 -10 11 -10 5 0 7 5 4 10 -3 6 -8 10 -11 10 -2 0
-4 -4 -4 -10z"/>
<path d="M5980 4096 c0 -2 8 -10 18 -17 15 -13 16 -12 3 4 -13 16 -21 21 -21
13z"/>
<path d="M6070 4076 c0 -2 7 -7 16 -10 8 -3 12 -2 9 4 -6 10 -25 14 -25 6z"/>
<path d="M7110 4040 c-9 -6 -10 -10 -3 -10 6 0 15 5 18 10 8 12 4 12 -15 0z"/>
<path d="M7205 4040 c-3 -5 -12 -7 -19 -4 -8 3 -16 1 -20 -4 -8 -13 32 -8 46
6 7 7 9 12 6 12 -4 0 -9 -4 -13 -10z"/>
<path d="M5353 4005 c0 -22 2 -30 4 -17 2 12 2 30 0 40 -3 9 -5 -1 -4 -23z"/>
<path d="M7059 4003 c-13 -15 -12 -15 9 -4 23 12 28 21 13 21 -5 0 -15 -7 -22
-17z"/>
<path d="M7113 3995 c0 -8 4 -12 9 -9 5 3 6 10 3 15 -9 13 -12 11 -12 -6z"/>
<path d="M2230 3960 c0 -5 5 -10 11 -10 5 0 7 5 4 10 -3 6 -8 10 -11 10 -2 0
-4 -4 -4 -10z"/>
<path d="M7057 3959 c7 -7 15 -10 18 -7 3 3 -2 9 -12 12 -14 6 -15 5 -6 -5z"/>
<path d="M2743 3953 c15 -2 39 -2 55 0 15 2 2 4 -28 4 -30 0 -43 -2 -27 -4z"/>
<path d="M2868 3953 c12 -2 32 -2 45 0 12 2 2 4 -23 4 -25 0 -35 -2 -22 -4z"/>
<path d="M5288 3953 c6 -2 18 -2 25 0 6 3 1 5 -13 5 -14 0 -19 -2 -12 -5z"/>
<path d="M5338 3953 c7 -3 16 -2 19 1 4 3 -2 6 -13 5 -11 0 -14 -3 -6 -6z"/>
<path d="M6222 3941 c-11 -6 -10 -10 4 -15 9 -3 19 -4 22 -1 3 3 -1 5 -9 5
-11 0 -11 2 1 10 8 5 11 10 5 10 -5 0 -16 -4 -23 -9z"/>
<path d="M6360 3930 c8 -5 22 -9 30 -9 10 0 8 3 -5 9 -27 12 -43 12 -25 0z"/>
<path d="M6980 3920 c-8 -5 -10 -10 -5 -10 6 0 17 5 25 10 8 5 11 10 5 10 -5
0 -17 -5 -25 -10z"/>
<path d="M6428 3913 c7 -3 16 -2 19 1 4 3 -2 6 -13 5 -11 0 -14 -3 -6 -6z"/>
<path d="M6793 3913 c9 -2 23 -2 30 0 6 3 -1 5 -18 5 -16 0 -22 -2 -12 -5z"/>
<path d="M6438 3863 c7 -3 16 -2 19 1 4 3 -2 6 -13 5 -11 0 -14 -3 -6 -6z"/>
<path d="M6508 3853 c6 -2 18 -2 25 0 6 3 1 5 -13 5 -14 0 -19 -2 -12 -5z"/>
<path d="M6728 3853 c7 -3 16 -2 19 1 4 3 -2 6 -13 5 -11 0 -14 -3 -6 -6z"/>
<path d="M2418 3693 c12 -2 30 -2 40 0 9 3 -1 5 -23 4 -22 0 -30 -2 -17 -4z"/>
<path d="M3182 3693 c390 -2 1026 -2 1415 0 390 1 71 2 -707 2 -778 0 -1097
-1 -708 -2z"/>
<path d="M8105 2730 c3 -5 8 -10 11 -10 2 0 4 5 4 10 0 6 -5 10 -11 10 -5 0
-7 -4 -4 -10z"/>
<path d="M8133 2585 c0 -22 2 -30 4 -17 2 12 2 30 0 40 -3 9 -5 -1 -4 -23z"/>
<path d="M1662 2585 c0 -16 2 -22 5 -12 2 9 2 23 0 30 -3 6 -5 -1 -5 -18z"/>
<path d="M1651 2504 c0 -11 3 -14 6 -6 3 7 2 16 -1 19 -3 4 -6 -2 -5 -13z"/>
<path d="M8142 2500 c0 -14 2 -19 5 -12 2 6 2 18 0 25 -3 6 -5 1 -5 -13z"/>
<path d="M1668 2423 c17 -2 47 -2 65 0 17 2 3 4 -33 4 -36 0 -50 -2 -32 -4z"/>
<path d="M8058 2423 c12 -2 30 -2 40 0 9 3 -1 5 -23 4 -22 0 -30 -2 -17 -4z"/>
<path d="M8128 2423 c6 -2 18 -2 25 0 6 3 1 5 -13 5 -14 0 -19 -2 -12 -5z"/>
<path d="M1766 2388 c-9 -57 -26 -212 -26 -240 l0 -28 3160 0 3160 0 0 23 c0
12 -7 78 -15 147 -8 69 -15 126 -15 128 0 1 -1408 2 -3130 2 l-3129 0 -5 -32z"/>
</g>
</svg>
